<svg width="1556" height="757" viewBox="0 0 1556 757" fill="none" xmlns="http://www.w3.org/2000/svg">
<path fill-rule="evenodd" clip-rule="evenodd" d="M618 157.475C618.007 127.936 626.319 98.9951 641.987 73.9554C657.656 48.9157 680.049 28.7866 706.61 15.8666C733.171 2.94649 762.829 -2.24392 792.199 0.887925C821.569 4.01977 849.466 15.3477 872.706 33.5783C895.946 51.8088 913.591 76.2074 923.628 103.988C933.665 131.769 935.688 161.812 929.467 190.688C923.245 219.564 909.031 246.108 888.445 267.291C867.859 288.473 841.733 303.439 813.048 310.481C818.159 321.259 826.224 330.365 836.306 336.739C846.388 343.113 858.072 346.494 870 346.489H901.5C926.563 346.489 950.599 356.445 968.322 374.169C986.044 391.892 996 415.931 996 440.995V504H933V440.995C933 432.64 929.681 424.628 923.774 418.72C917.866 412.812 909.854 409.493 901.5 409.493H870C852.121 409.514 834.443 405.721 818.147 398.365C801.851 391.01 787.312 380.262 775.5 366.839C763.688 380.262 749.149 391.01 732.853 398.365C716.557 405.721 698.879 409.514 681 409.493H649.5C641.146 409.493 633.134 412.812 627.226 418.72C621.319 424.628 618 432.64 618 440.995V504H555V440.995C555 415.931 564.956 391.892 582.678 374.169C600.401 356.445 624.437 346.489 649.5 346.489H681C692.928 346.494 704.612 343.113 714.694 336.739C724.776 330.365 732.841 321.259 737.952 310.481C703.727 302.068 673.312 282.423 651.567 254.685C629.821 226.948 618.003 192.721 618 157.475V157.475ZM775.5 251.982C763.09 251.982 750.802 249.537 739.336 244.788C727.871 240.038 717.454 233.077 708.678 224.301C699.903 215.526 692.942 205.107 688.193 193.641C683.444 182.175 681 169.886 681 157.475C681 145.064 683.444 132.775 688.193 121.309C692.942 109.843 699.903 99.4242 708.678 90.6484C717.454 81.8726 727.871 74.9113 739.336 70.1619C750.802 65.4125 763.09 62.968 775.5 62.968C800.563 62.968 824.599 72.9249 842.322 90.6484C860.044 108.372 870 132.41 870 157.475C870 182.54 860.044 206.578 842.322 224.301C824.599 242.025 800.563 251.982 775.5 251.982V251.982Z" fill="white"/>
<path fill-rule="evenodd" clip-rule="evenodd" d="M212.714 241.356C212.719 218.968 219.015 197.032 230.882 178.053C242.748 159.075 259.708 143.818 279.825 134.026C299.941 124.233 322.404 120.299 344.647 122.673C366.891 125.047 388.02 133.633 405.621 147.45C423.222 161.268 436.586 179.76 444.188 200.816C451.789 221.872 453.321 244.643 448.61 266.529C443.898 288.415 433.132 308.534 417.541 324.589C401.95 340.644 382.163 351.988 360.438 357.325C364.309 365.494 370.417 372.396 378.053 377.227C385.689 382.058 394.538 384.62 403.571 384.616H427.429C446.411 384.616 464.615 392.163 478.037 405.596C491.459 419.03 499 437.249 499 456.247V504H451.286V456.247C451.286 449.914 448.772 443.841 444.298 439.363C439.824 434.885 433.756 432.37 427.429 432.37H403.571C390.03 432.386 376.642 429.51 364.3 423.935C351.958 418.36 340.946 410.214 332 400.041C323.054 410.214 312.042 418.36 299.7 423.935C287.358 429.51 273.97 432.386 260.429 432.37H236.571C230.244 432.37 224.176 434.885 219.702 439.363C215.228 443.841 212.714 449.914 212.714 456.247V504H165V456.247C165 437.249 172.541 419.03 185.963 405.596C199.385 392.163 217.59 384.616 236.571 384.616H260.429C269.462 384.62 278.311 382.058 285.947 377.227C293.583 372.396 299.691 365.494 303.562 357.325C277.642 350.948 254.606 336.058 238.137 315.035C221.667 294.012 212.716 268.07 212.714 241.356V241.356ZM332 312.986C322.601 312.986 313.294 311.133 304.611 307.534C295.927 303.934 288.037 298.658 281.391 292.006C274.745 285.355 269.473 277.458 265.877 268.768C262.28 260.077 260.429 250.763 260.429 241.356C260.429 231.949 262.28 222.635 265.877 213.944C269.473 205.254 274.745 197.357 281.391 190.706C288.037 184.054 295.927 178.778 304.611 175.178C313.294 171.579 322.601 169.726 332 169.726C350.982 169.726 369.186 177.272 382.609 190.706C396.031 204.139 403.571 222.358 403.571 241.356C403.571 260.353 396.031 278.573 382.609 292.006C369.186 305.439 350.982 312.986 332 312.986V312.986Z" fill="white"/>
<path fill-rule="evenodd" clip-rule="evenodd" d="M1099.71 241.356C1099.72 218.968 1106.01 197.032 1117.88 178.053C1129.75 159.075 1146.71 143.818 1166.82 134.026C1186.94 124.233 1209.4 120.299 1231.65 122.673C1253.89 125.047 1275.02 133.633 1292.62 147.45C1310.22 161.268 1323.59 179.76 1331.19 200.816C1338.79 221.872 1340.32 244.643 1335.61 266.529C1330.9 288.415 1320.13 308.534 1304.54 324.589C1288.95 340.644 1269.16 351.988 1247.44 357.325C1251.31 365.494 1257.42 372.396 1265.05 377.227C1272.69 382.058 1281.54 384.62 1290.57 384.616H1314.43C1333.41 384.616 1351.61 392.163 1365.04 405.596C1378.46 419.03 1386 437.249 1386 456.247V504H1338.29V456.247C1338.29 449.914 1335.77 443.841 1331.3 439.363C1326.82 434.885 1320.76 432.37 1314.43 432.37H1290.57C1277.03 432.386 1263.64 429.51 1251.3 423.935C1238.96 418.36 1227.95 410.214 1219 400.041C1210.05 410.214 1199.04 418.36 1186.7 423.935C1174.36 429.51 1160.97 432.386 1147.43 432.37H1123.57C1117.24 432.37 1111.18 434.885 1106.7 439.363C1102.23 443.841 1099.71 449.914 1099.71 456.247V504H1052V456.247C1052 437.249 1059.54 419.03 1072.96 405.596C1086.39 392.163 1104.59 384.616 1123.57 384.616H1147.43C1156.46 384.62 1165.31 382.058 1172.95 377.227C1180.58 372.396 1186.69 365.494 1190.56 357.325C1164.64 350.948 1141.61 336.058 1125.14 315.035C1108.67 294.012 1099.72 268.07 1099.71 241.356V241.356ZM1219 312.986C1209.6 312.986 1200.29 311.133 1191.61 307.534C1182.93 303.934 1175.04 298.658 1168.39 292.006C1161.75 285.355 1156.47 277.458 1152.88 268.768C1149.28 260.077 1147.43 250.763 1147.43 241.356C1147.43 231.949 1149.28 222.635 1152.88 213.944C1156.47 205.254 1161.75 197.357 1168.39 190.706C1175.04 184.054 1182.93 178.778 1191.61 175.178C1200.29 171.579 1209.6 169.726 1219 169.726C1237.98 169.726 1256.19 177.272 1269.61 190.706C1283.03 204.139 1290.57 222.358 1290.57 241.356C1290.57 260.353 1283.03 278.573 1269.61 292.006C1256.19 305.439 1237.98 312.986 1219 312.986V312.986Z" fill="white"/>
<path d="M125.735 741.096C112.811 751.699 95.4904 757 73.7717 757C52.053 757 34.4627 750.89 21.0007 738.67C7.71821 726.451 0.717973 710.188 0 689.881H45.7708C46.3092 697.788 49.0914 704.168 54.1172 709.02C59.143 713.692 65.6945 716.028 73.7717 716.028C80.9514 716.028 86.6055 714.5 90.7338 711.446C95.0417 708.211 97.1956 703.988 97.1956 698.777C97.1956 694.464 95.4904 691.049 92.08 688.534C88.6697 685.838 84.2721 683.771 78.8873 682.334C73.5025 680.896 67.4894 679.548 60.8482 678.29C54.2069 677.033 47.5657 675.146 40.9245 672.63C34.4627 670.114 28.5394 666.879 23.1546 662.926C17.7698 658.973 13.3722 653.312 9.96187 645.944C6.5515 638.397 4.84632 629.412 4.84632 618.989C4.84632 602.995 11.0388 589.877 23.4239 579.634C35.8089 569.211 51.6043 564 70.8101 564C91.8108 564 108.683 569.571 121.427 580.712C134.351 591.674 140.902 606.41 141.082 624.919H95.8494C95.3109 618.809 92.798 613.957 88.3107 610.363C84.0028 606.769 78.1693 604.972 70.8101 604.972C64.8868 604.972 60.1302 606.32 56.5404 609.015C52.9505 611.531 51.1556 614.856 51.1556 618.989C51.1556 624.38 53.489 628.693 58.1558 631.927C62.8226 634.982 68.5664 637.049 75.3872 638.127C82.3874 639.205 89.9261 640.912 98.0033 643.249C106.26 645.405 113.799 648.101 120.619 651.335C127.62 654.57 133.453 660.23 138.12 668.317C142.787 676.224 145.12 686.108 145.12 697.968C145.12 715.938 138.659 730.314 125.735 741.096Z" fill="white"/>
<path d="M201.795 754.844V607.128H147.947V566.156H303.568V607.128H249.72V754.844H201.795Z" fill="white"/>
<path d="M463.042 700.663L468.965 754.844H420.771L414.848 707.672C414.13 702.46 411.886 698.237 408.117 695.003C404.527 691.768 400.13 690.151 394.924 690.151H364.5V754.844H316.306V566.156H399.232C419.515 566.156 435.4 571.817 446.888 583.138C458.555 594.459 464.388 609.195 464.388 627.345C464.388 644.596 457.208 657.086 442.849 664.813C454.696 673.259 461.427 685.209 463.042 700.663ZM364.5 605.511V649.179H396.001C403.361 649.179 408.925 647.112 412.694 642.979C416.643 638.846 418.617 633.635 418.617 627.345C418.617 621.055 416.643 615.844 412.694 611.711C408.925 607.578 403.361 605.511 396.001 605.511H364.5Z" fill="white"/>
<path d="M498.779 754.844V566.156H631.515V607.128H546.704V638.397H613.476V679.369H546.704V713.871H634.476V754.844H498.779Z" fill="white"/>
<path d="M780.068 754.844L767.144 717.915H705.758L693.103 754.844H643.294L713.565 566.156H759.336L829.608 754.844H780.068ZM719.489 678.021H753.413L736.451 628.962L719.489 678.021Z" fill="white"/>
<path d="M847.161 754.844V566.156H899.394L951.357 686.916L1003.32 566.156H1055.28V754.844H1011.13V655.109L968.319 754.844H934.395L891.316 655.109V754.844H847.161Z" fill="white"/>
<path d="M1088 754.844V566.156H1220.74V607.128H1135.93V638.397H1202.7V679.369H1135.93V713.871H1223.7V754.844H1088Z" fill="white"/>
<path d="M1394.6 700.663L1400.52 754.844H1352.33L1346.41 707.672C1345.69 702.46 1343.45 698.237 1339.68 695.003C1336.09 691.768 1331.69 690.151 1326.48 690.151H1296.06V754.844H1247.87V566.156H1330.79C1351.07 566.156 1366.96 571.817 1378.45 583.138C1390.11 594.459 1395.95 609.195 1395.95 627.345C1395.95 644.596 1388.77 657.086 1374.41 664.813C1386.25 673.259 1392.99 685.209 1394.6 700.663ZM1296.06 605.511V649.179H1327.56C1334.92 649.179 1340.48 647.112 1344.25 642.979C1348.2 638.846 1350.18 633.635 1350.18 627.345C1350.18 621.055 1348.2 615.844 1344.25 611.711C1340.48 607.578 1334.92 605.511 1327.56 605.511H1296.06Z" fill="white"/>
<path d="M1536.61 741.096C1523.69 751.699 1506.37 757 1484.65 757C1462.93 757 1445.34 750.89 1431.88 738.67C1418.6 726.451 1411.6 710.188 1410.88 689.881H1456.65C1457.19 697.788 1459.97 704.168 1465 709.02C1470.02 713.692 1476.57 716.028 1484.65 716.028C1491.83 716.028 1497.49 714.5 1501.61 711.446C1505.92 708.211 1508.08 703.988 1508.08 698.777C1508.08 694.464 1506.37 691.049 1502.96 688.534C1499.55 685.838 1495.15 683.771 1489.77 682.334C1484.38 680.896 1478.37 679.548 1471.73 678.29C1465.09 677.033 1458.45 675.146 1451.8 672.63C1445.34 670.114 1439.42 666.879 1434.03 662.926C1428.65 658.973 1424.25 653.312 1420.84 645.944C1417.43 638.397 1415.73 629.412 1415.73 618.989C1415.73 602.995 1421.92 589.877 1434.3 579.634C1446.69 569.211 1462.48 564 1481.69 564C1502.69 564 1519.56 569.571 1532.31 580.712C1545.23 591.674 1551.78 606.41 1551.96 624.919H1506.73C1506.19 618.809 1503.68 613.957 1499.19 610.363C1494.88 606.769 1489.05 604.972 1481.69 604.972C1475.77 604.972 1471.01 606.32 1467.42 609.015C1463.83 611.531 1462.04 614.856 1462.04 618.989C1462.04 624.38 1464.37 628.693 1469.04 631.927C1473.7 634.982 1479.45 637.049 1486.27 638.127C1493.27 639.205 1500.81 640.912 1508.88 643.249C1517.14 645.405 1524.68 648.101 1531.5 651.335C1538.5 654.57 1544.33 660.23 1549 668.317C1553.67 676.224 1556 686.108 1556 697.968C1556 715.938 1549.54 730.314 1536.61 741.096Z" fill="white"/>
</svg>
