<svg width="1221" height="504" viewBox="0 0 1221 504" fill="none" xmlns="http://www.w3.org/2000/svg">
<path fill-rule="evenodd" clip-rule="evenodd" d="M453 157.475C453.007 127.936 461.319 98.9951 476.987 73.9554C492.656 48.9157 515.049 28.7866 541.61 15.8666C568.171 2.94649 597.829 -2.24392 627.199 0.887925C656.569 4.01977 684.466 15.3477 707.706 33.5783C730.946 51.8088 748.591 76.2074 758.628 103.988C768.665 131.769 770.688 161.812 764.467 190.688C758.245 219.564 744.031 246.108 723.445 267.291C702.859 288.473 676.733 303.439 648.048 310.481C653.159 321.259 661.224 330.365 671.306 336.739C681.388 343.113 693.072 346.494 705 346.489H736.5C761.563 346.489 785.599 356.445 803.322 374.169C821.044 391.892 831 415.931 831 440.995V504H768V440.995C768 432.64 764.681 424.628 758.774 418.72C752.866 412.812 744.854 409.493 736.5 409.493H705C687.121 409.514 669.443 405.721 653.147 398.365C636.851 391.01 622.312 380.262 610.5 366.839C598.688 380.262 584.149 391.01 567.853 398.365C551.557 405.721 533.879 409.514 516 409.493H484.5C476.146 409.493 468.134 412.812 462.226 418.72C456.319 424.628 453 432.64 453 440.995V504H390V440.995C390 415.931 399.956 391.892 417.678 374.169C435.401 356.445 459.437 346.489 484.5 346.489H516C527.928 346.494 539.612 343.113 549.694 336.739C559.776 330.365 567.841 321.259 572.952 310.481C538.727 302.068 508.312 282.423 486.567 254.685C464.821 226.948 453.003 192.721 453 157.475V157.475ZM610.5 251.982C598.09 251.982 585.802 249.537 574.336 244.788C562.871 240.038 552.454 233.077 543.678 224.301C534.903 215.526 527.942 205.107 523.193 193.641C518.444 182.175 516 169.886 516 157.475C516 145.064 518.444 132.775 523.193 121.309C527.942 109.843 534.903 99.4242 543.678 90.6484C552.454 81.8726 562.871 74.9113 574.336 70.1619C585.802 65.4125 598.09 62.968 610.5 62.968C635.563 62.968 659.599 72.9249 677.322 90.6484C695.044 108.372 705 132.41 705 157.475C705 182.54 695.044 206.578 677.322 224.301C659.599 242.025 635.563 251.982 610.5 251.982V251.982Z" fill="white"/>
<path fill-rule="evenodd" clip-rule="evenodd" d="M47.7143 241.356C47.7195 218.968 54.0148 197.032 65.8815 178.053C77.7482 159.075 94.7081 143.818 114.825 134.026C134.941 124.233 157.404 120.299 179.647 122.673C201.891 125.047 223.02 133.633 240.621 147.45C258.222 161.268 271.586 179.76 279.188 200.816C286.789 221.872 288.321 244.643 283.61 266.529C278.898 288.415 268.132 308.534 252.541 324.589C236.95 340.644 217.163 351.988 195.438 357.325C199.309 365.494 205.417 372.396 213.053 377.227C220.689 382.058 229.538 384.62 238.571 384.616H262.429C281.411 384.616 299.615 392.163 313.037 405.596C326.459 419.03 334 437.249 334 456.247V504H286.286V456.247C286.286 449.914 283.772 443.841 279.298 439.363C274.824 434.885 268.756 432.37 262.429 432.37H238.571C225.03 432.386 211.642 429.51 199.3 423.935C186.958 418.36 175.946 410.214 167 400.041C158.054 410.214 147.042 418.36 134.7 423.935C122.358 429.51 108.97 432.386 95.4286 432.37H71.5714C65.2441 432.37 59.176 434.885 54.7019 439.363C50.2278 443.841 47.7143 449.914 47.7143 456.247V504H0V456.247C0 437.249 7.54054 419.03 20.9628 405.596C34.385 392.163 52.5895 384.616 71.5714 384.616H95.4286C104.462 384.62 113.311 382.058 120.947 377.227C128.583 372.396 134.691 365.494 138.562 357.325C112.642 350.948 89.6056 336.058 73.1365 315.035C56.6675 294.012 47.7164 268.07 47.7143 241.356V241.356ZM167 312.986C157.601 312.986 148.294 311.133 139.611 307.534C130.927 303.934 123.037 298.658 116.391 292.006C109.745 285.355 104.473 277.458 100.877 268.768C97.2798 260.077 95.4286 250.763 95.4286 241.356C95.4286 231.949 97.2798 222.635 100.877 213.944C104.473 205.254 109.745 197.357 116.391 190.706C123.037 184.054 130.927 178.778 139.611 175.178C148.294 171.579 157.601 169.726 167 169.726C185.982 169.726 204.186 177.272 217.609 190.706C231.031 204.139 238.571 222.358 238.571 241.356C238.571 260.353 231.031 278.573 217.609 292.006C204.186 305.439 185.982 312.986 167 312.986V312.986Z" fill="white"/>
<path fill-rule="evenodd" clip-rule="evenodd" d="M934.714 241.356C934.719 218.968 941.015 197.032 952.882 178.053C964.748 159.075 981.708 143.818 1001.82 134.026C1021.94 124.233 1044.4 120.299 1066.65 122.673C1088.89 125.047 1110.02 133.633 1127.62 147.45C1145.22 161.268 1158.59 179.76 1166.19 200.816C1173.79 221.872 1175.32 244.643 1170.61 266.529C1165.9 288.415 1155.13 308.534 1139.54 324.589C1123.95 340.644 1104.16 351.988 1082.44 357.325C1086.31 365.494 1092.42 372.396 1100.05 377.227C1107.69 382.058 1116.54 384.62 1125.57 384.616H1149.43C1168.41 384.616 1186.61 392.163 1200.04 405.596C1213.46 419.03 1221 437.249 1221 456.247V504H1173.29V456.247C1173.29 449.914 1170.77 443.841 1166.3 439.363C1161.82 434.885 1155.76 432.37 1149.43 432.37H1125.57C1112.03 432.386 1098.64 429.51 1086.3 423.935C1073.96 418.36 1062.95 410.214 1054 400.041C1045.05 410.214 1034.04 418.36 1021.7 423.935C1009.36 429.51 995.97 432.386 982.429 432.37H958.571C952.244 432.37 946.176 434.885 941.702 439.363C937.228 443.841 934.714 449.914 934.714 456.247V504H887V456.247C887 437.249 894.541 419.03 907.963 405.596C921.385 392.163 939.59 384.616 958.571 384.616H982.429C991.462 384.62 1000.31 382.058 1007.95 377.227C1015.58 372.396 1021.69 365.494 1025.56 357.325C999.642 350.948 976.606 336.058 960.137 315.035C943.667 294.012 934.716 268.07 934.714 241.356V241.356ZM1054 312.986C1044.6 312.986 1035.29 311.133 1026.61 307.534C1017.93 303.934 1010.04 298.658 1003.39 292.006C996.745 285.355 991.473 277.458 987.877 268.768C984.28 260.077 982.429 250.763 982.429 241.356C982.429 231.949 984.28 222.635 987.877 213.944C991.473 205.254 996.745 197.357 1003.39 190.706C1010.04 184.054 1017.93 178.778 1026.61 175.178C1035.29 171.579 1044.6 169.726 1054 169.726C1072.98 169.726 1091.19 177.272 1104.61 190.706C1118.03 204.139 1125.57 222.358 1125.57 241.356C1125.57 260.353 1118.03 278.573 1104.61 292.006C1091.19 305.439 1072.98 312.986 1054 312.986V312.986Z" fill="white"/>
</svg>
